HIERARCHY
ROOT Hips
{
    OFFSET 0.000000 0.000000 0.000000
    CHANNELS 6 Xposition Yposition Zposition Zrotation Xrotation Yrotation
    JOINT Spine
    {
        OFFSET -0.000000 7.236184 0.000000
        CHANNELS 3 Zrotation Xrotation Yrotation
        JOINT Spine1
        {
            OFFSET -0.000000 20.420147 0.000000
            CHANNELS 3 Zrotation Xrotation Yrotation
            JOINT Neck
            {
                OFFSET -0.000000 20.336288 1.848754
                CHANNELS 3 Zrotation Xrotation Yrotation
                JOINT Head
                {
                    OFFSET -0.000000 12.354461 -1.764923
                    CHANNELS 3 Zrotation Xrotation Yrotation
                    End Site
                    {
                        OFFSET -0.000000 22.061537 0.000000
                    }
                }
            }
            JOINT LeftShoulder
            {
                OFFSET 3.573296 18.396038 -0.314103
                CHANNELS 3 Zrotation Xrotation Yrotation
                JOINT LeftArm
                {
                    OFFSET 10.880760 0.000000 0.000000
                    CHANNELS 3 Zrotation Xrotation Yrotation
                    JOINT LeftForeArm
                    {
                        OFFSET 27.185530 0.000000 0.000000
                        CHANNELS 3 Zrotation Xrotation Yrotation
                        JOINT LeftHand
                        {
                            OFFSET 27.825975 0.000000 0.000000
                            CHANNELS 3 Zrotation Xrotation Yrotation
                            End Site
                            {
                                OFFSET 13.236923 0.000000 0.000000
                            }
                        }
                    }
                }
            }
            JOINT RightShoulder
            {
                OFFSET -3.474926 18.396038 -0.314103
                CHANNELS 3 Zrotation Xrotation Yrotation
                JOINT RightArm
                {
                    OFFSET -10.880760 0.000000 0.000000
                    CHANNELS 3 Zrotation Xrotation Yrotation
                    JOINT RightForeArm
                    {
                        OFFSET -27.185530 0.000000 0.000000
                        CHANNELS 3 Zrotation Xrotation Yrotation
                        JOINT RightHand
                        {
                            OFFSET -27.825975 0.000000 0.000000
                            CHANNELS 3 Zrotation Xrotation Yrotation
                            End Site
                            {
                                OFFSET -13.236923 0.000000 0.000000
                            }
                        }
                    }
                }
            }
        }
    }
    JOINT LeftUpLeg
    {
        OFFSET 8.824615 0.000000 0.000000
        CHANNELS 3 Zrotation Xrotation Yrotation
        JOINT LeftLeg
        {
            OFFSET -0.000000 -35.111282 0.000000
            CHANNELS 3 Zrotation Xrotation Yrotation
            JOINT LeftFoot
            {
                OFFSET -0.000000 -42.324711 0.000000
                CHANNELS 3 Zrotation Xrotation Yrotation
                JOINT LeftToeBase
                {
                    OFFSET -0.000000 -5.735999 13.236923
                    CHANNELS 3 Zrotation Xrotation Yrotation
                    End Site
                    {
                        OFFSET -0.000000 0.000000 3.529846
                    }
                }
            }
        }
    }
    JOINT RightUpLeg
    {
        OFFSET -8.824615 0.000000 0.000000
        CHANNELS 3 Zrotation Xrotation Yrotation
        JOINT RightLeg
        {
            OFFSET -0.000000 -35.111282 0.000000
            CHANNELS 3 Zrotation Xrotation Yrotation
            JOINT RightFoot
            {
                OFFSET -0.000000 -42.324711 0.000000
                CHANNELS 3 Zrotation Xrotation Yrotation
                JOINT RightToeBase
                {
                    OFFSET -0.000000 -5.735999 13.236923
                    CHANNELS 3 Zrotation Xrotation Yrotation
                    End Site
                    {
                        OFFSET -0.000000 0.000000 3.529846
                    }
                }
            }
        }
    }
}
MOTION
Frames:    4
Frame Time:    0.008333
-8.688766    82.938988    100.840469    -11.560163    -25.031361    -160.819702    -31.563614    -43.499535    -19.041193    3.159217    27.665161    -6.952724    1.197156    3.956829    -1.152404    2.872221    -21.414375    -0.405330    -5.313192    19.385916    -1.723981    -34.035370    46.211311    -44.292542    -1.321932    -2.125558    -17.057135    13.836082    -2.118887    1.688789    13.313177    20.350130    -5.688951    19.303970    49.238163    51.595863    -1.854350    -9.739777    32.881725    -16.387625    -9.480519    1.974267    -20.387398    -14.092741    -35.105579    1.077452    5.639171    11.962975    -1.513159    -9.828123    -10.062993    -0.756536    2.179721    0.835370    -19.200445    -2.302433    -19.158329    6.045265    -5.338290    4.800241    -4.981429    -9.363624    -12.566710    -1.233651    0.068524    1.334156    
-8.500021    83.212410    101.681587    -10.864158    -21.067541    -164.117554    -24.175327    -39.502369    -13.363026    2.074170    25.060810    -5.029884    1.203165    3.925716    -1.104087    2.778639    -21.435434    -0.385850    -5.271408    19.390013    -1.808248    -34.015324    46.124477    -44.341702    -1.245412    -1.972240    -17.427134    13.001449    -1.964131    1.746421    13.284917    20.336197    -5.613117    19.242470    49.234913    51.559811    -1.825202    -9.834586    33.461586    -15.923613    -9.555763    1.900481    -17.892118    -12.581165    -30.261627    1.025467    6.499033    11.654748    -1.501095    -9.880607    -10.025667    -0.743756    2.210057    0.821214    -17.247578    -2.283453    -13.889688    5.309747    -3.286198    3.649826    -4.894866    -9.313414    -12.378175    -1.217928    0.062975    1.317162    
-8.266611    83.463631    102.373596    -9.872729    -17.552896    -166.688202    -18.675735    -35.180683    -9.304910    1.397187    22.578650    -3.615476    1.208673    3.888989    -1.055938    2.687343    -21.453789    -0.365916    -5.231679    19.391928    -1.887916    -34.006367    46.029716    -44.376575    -1.158188    -1.820890    -17.819653    12.150433    -1.810031    1.808014    13.254639    20.319736    -5.541266    19.191235    49.227238    51.513714    -1.799283    -9.937097    34.072575    -15.443862    -9.637305    1.822567    -15.472246    -11.065100    -26.073404    0.875658    7.258122    11.143724    -1.504187    -9.963054    -9.979175    -0.731282    2.237791    0.807403    -15.120414    -1.948886    -9.515884    4.646456    -1.598026    2.646490    -4.815217    -9.247176    -12.219381    -1.202236    0.057052    1.300203    
-8.015527    83.691879    102.935501    -8.751420    -14.546805    -168.680771    -14.630465    -30.996592    -6.476265    1.003690    20.307350    -2.578701    1.213739    3.846208    -1.007756    2.598815    -21.470015    -0.345153    -5.193549    19.391375    -1.962939    -34.011147    45.923801    -44.395008    -1.058524    -1.671018    -18.242512    11.275323    -1.656051    1.873692    13.221469    20.299995    -5.473020    19.151443    49.214050    51.455723    -1.776583    -10.048927    34.725674    -14.943073    -9.726501    1.740128    -13.226654    -9.639240    -22.570770    0.673490    7.926086    10.534437    -1.515732    -10.061258    -9.930024    -0.719221    2.262767    0.794052    -13.016117    -1.427757    -5.994624    4.065584    -0.228561    1.820783    -4.752532    -9.170886    -12.113379    -1.186545    0.050202    1.283246    
